<svg width="128" height="128" viewBox="0 0 128 128" fill="none" xmlns="http://www.w3.org/2000/svg">
<path d="M4 28C4 23.5817 7.58172 20 12 20H47.8985C49.5893 20 51.2365 20.5357 52.6039 21.5301L57.2922 24.9398C60.0269 26.9287 63.3215 28 66.7029 28H116C120.418 28 124 31.5817 124 36V100C124 104.418 120.418 108 116 108H12C7.58172 108 4 104.418 4 100V28Z" fill="#00717C"/>
<path d="M4 44C4 39.5817 7.58172 36 12 36H116C120.418 36 124 39.5817 124 44V100C124 104.418 120.418 108 116 108H12C7.58172 108 4 104.418 4 100V44Z" fill="url(#paint0_linear_2004_703)"/>
<defs>
<linearGradient id="paint0_linear_2004_703" x1="124" y1="36" x2="20.4185" y2="126.742" gradientUnits="userSpaceOnUse">
<stop stop-color="#49BAC8"/>
<stop offset="1" stop-color="#05919F"/>
</linearGradient>
</defs>
</svg>
