<svg width="24" height="24" viewBox="0 0 24 24" fill="none" xmlns="http://www.w3.org/2000/svg">
<path d="M2 6.25C2 5.00736 3.00736 4 4.25 4H8.06802C8.66476 4 9.23705 4.23705 9.65901 4.65901C10.5176 5.51763 11.6822 6 12.8964 6H19.75C20.9926 6 22 7.00736 22 8.25V17.75C22 18.9926 20.9926 20 19.75 20H4.25C3.00736 20 2 18.9926 2 17.75V6.25Z" fill="#00717C"/>
<path d="M2 10.25C2 9.00736 3.00736 8 4.25 8H19.75C20.9926 8 22 9.00736 22 10.25V17.75C22 18.9926 20.9926 20 19.75 20H4.25C3.00736 20 2 18.9926 2 17.75V10.25Z" fill="url(#paint0_linear_2004_699)"/>
<defs>
<linearGradient id="paint0_linear_2004_699" x1="22" y1="8" x2="4.73642" y2="23.1236" gradientUnits="userSpaceOnUse">
<stop stop-color="#49BAC8"/>
<stop offset="1" stop-color="#05919F"/>
</linearGradient>
</defs>
</svg>
